<?xml version="1.0" encoding="utf-8"?>
<!-- Generator: Adobe Illustrator 16.0.0, SVG Export Plug-In . SVG Version: 6.00 Build 0)  -->
<!DOCTYPE svg PUBLIC "-//W3C//DTD SVG 1.1//EN" "http://www.w3.org/Graphics/SVG/1.1/DTD/svg11.dtd">
<svg version="1.1" id="Layer_1" xmlns="http://www.w3.org/2000/svg" xmlns:xlink="http://www.w3.org/1999/xlink" x="0px" y="0px"
	 width="1080px" height="1080px" viewBox="0 0 1080 1080" enable-background="new 0 0 1080 1080" xml:space="preserve">
<path fill-rule="evenodd" clip-rule="evenodd" d="M387.21,405.072c2.03,1.181,4.1,1.879,5.485,3.263
	c83.25,83.14,166.447,166.331,249.615,249.552c2.813,2.814,5.583,5.774,7.814,9.048c4.449,6.53,4.754,13.419,0.121,20.041
	c-2.374,3.394-4.968,6.706-7.88,9.641c-19.722,19.872-39.553,39.635-59.354,59.427c-1.061,1.06-2.122,2.125-3.255,3.104
	c-10.411,8.986-17.614,8.799-27.289-0.868c-47.862-47.822-95.7-95.67-143.544-143.511
	c-64.107-64.102-128.231-128.186-192.265-192.36c-3.494-3.502-6.489-7.582-9.265-11.697c-3.596-5.331-3.331-10.176,0.709-15.127
	c4.507-5.523,9.022-11.096,14.051-16.129C339.231,262.269,456.47,145.244,573.345,27.857c9.605-9.648,19.62-14.478,33.095-13.594
	c10.122,0.663,20.323,0.122,30.488,0.134c8.615,0.01,14.109,5.08,14.166,13.838c0.16,24.83,0.632,49.681-0.189,74.484
	c-0.402,12.145-1.739,24.499-6.736,36.017c-4.275,9.854-9.796,18.789-17.431,26.419c-78.269,78.221-156.512,156.467-234.755,234.713
	C390.833,401.02,389.778,402.266,387.21,405.072z M263.416,403.887C364.303,504.802,465.684,606.208,566.168,706.72
	c9.941-9.852,20.272-20.089,30.75-30.472c-0.543-0.571-1.543-1.673-2.595-2.724c-85.656-85.657-171.321-171.307-256.957-256.985
	c-2.225-2.227-4.145-4.759-6.194-7.159c-2.99-3.503-2.566-7.056,0.105-10.433c3.194-4.039,6.262-8.238,9.886-11.866
	c87.849-87.953,175.755-175.849,263.716-263.69c2.679-2.676,3.903-5.365,3.863-9.193c-0.18-16.995-0.07-33.993-0.09-50.99
	c-0.002-1.564-0.182-3.127-0.26-4.403C493.165,174.069,378.146,289.122,263.416,403.887z"/>
<path fill-rule="evenodd" clip-rule="evenodd" d="M466.953,1015.231c-0.001-11.833-0.584-23.701,0.155-35.487
	c0.818-13.034,1.16-26.5,7.287-38.368c4.589-8.889,9.695-18.09,16.646-25.093c78.074-78.648,156.53-156.92,234.995-235.181
	c3.319-3.311,3.143-5.011-0.073-8.22c-83.404-83.221-166.71-166.541-249.991-249.885c-3.045-3.048-6.081-6.252-8.4-9.848
	c-4.041-6.262-4.216-12.937,0.159-19.206c2.465-3.531,5.169-6.972,8.197-10.024c19.599-19.758,39.317-39.398,58.998-59.077
	c0.824-0.824,1.615-1.691,2.5-2.446c11.096-9.476,18.381-9.976,28.833,0.5C669.487,426.358,772.884,529.65,876.234,632.991
	c8.603,8.603,17.321,17.093,25.748,25.863c3.317,3.453,6.227,7.371,8.882,11.369c3.39,5.103,3.124,10.008-0.724,14.716
	c-4.615,5.648-9.227,11.357-14.373,16.509c-117.192,117.304-234.46,234.532-351.702,351.786c-5.65,5.65-10.912,11.852-19.711,12.531
	c-1.98,0.152-3.955,0.522-5.934,0.531c-12.165,0.051-24.331,0.031-36.496,0.027c-9.787-0.003-14.904-5.111-14.956-15.097
	C466.906,1039.229,466.953,1027.23,466.953,1015.231z M509.444,1021.987C624.965,906.456,740.083,791.33,854.577,676.826
	C753.728,575.949,652.351,474.544,551.865,374.03c-9.868,9.861-20.152,20.137-30.572,30.55c0.47,0.493,1.473,1.595,2.523,2.646
	c85.657,85.657,171.322,171.306,256.957,256.985c2.225,2.227,4.138,4.765,6.187,7.166c3.002,3.518,2.513,7.072-0.156,10.429
	c-3.309,4.16-6.504,8.469-10.245,12.215c-87.73,87.836-175.519,175.614-263.362,263.337c-2.689,2.686-3.878,5.393-3.829,9.208
	c0.188,14.662,0.077,29.327,0.077,43.991C509.444,1014.34,509.444,1018.125,509.444,1021.987z"/>
<path fill-rule="evenodd" clip-rule="evenodd" fill="#FFFFFF" d="M263.416,403.887c114.73-114.765,229.75-229.818,344.979-345.081
	c0.078,1.275,0.258,2.839,0.26,4.403c0.02,16.997-0.09,33.995,0.09,50.99c0.04,3.829-1.185,6.518-3.863,9.193
	c-87.96,87.841-175.867,175.737-263.716,263.69c-3.625,3.628-6.692,7.827-9.886,11.866c-2.671,3.377-3.095,6.93-0.105,10.433
	c2.049,2.4,3.969,4.933,6.194,7.159c85.636,85.678,171.301,171.328,256.957,256.985c1.052,1.051,2.052,2.152,2.595,2.724
	c-10.478,10.383-20.809,20.62-30.75,30.472C465.684,606.208,364.303,504.802,263.416,403.887z"/>
<path fill-rule="evenodd" clip-rule="evenodd" fill="#FFFFFF" d="M509.444,1021.987c0-3.862,0-7.646,0-11.431
	c0-14.664,0.111-29.329-0.077-43.991c-0.049-3.815,1.14-6.522,3.829-9.208c87.843-87.723,175.631-175.501,263.362-263.337
	c3.741-3.746,6.937-8.055,10.245-12.215c2.669-3.356,3.158-6.911,0.156-10.429c-2.049-2.401-3.962-4.939-6.187-7.166
	c-85.635-85.679-171.3-171.328-256.957-256.985c-1.051-1.051-2.054-2.152-2.523-2.646c10.42-10.413,20.704-20.688,30.572-30.55
	c100.486,100.514,201.863,201.918,302.712,302.795C740.083,791.33,624.965,906.456,509.444,1021.987z"/>
</svg>
