<?xml version="1.0" encoding="utf-8"?>
<!-- Generator: Adobe Illustrator 16.0.0, SVG Export Plug-In . SVG Version: 6.00 Build 0)  -->
<!DOCTYPE svg PUBLIC "-//W3C//DTD SVG 1.1//EN" "http://www.w3.org/Graphics/SVG/1.1/DTD/svg11.dtd">
<svg version="1.1" id="Layer_1" xmlns="http://www.w3.org/2000/svg" xmlns:xlink="http://www.w3.org/1999/xlink" x="0px" y="0px"
	 width="1080px" height="1080px" viewBox="0 0 1080 1080" enable-background="new 0 0 1080 1080" xml:space="preserve">
<path fill-rule="evenodd" clip-rule="evenodd" fill="#FFFFFF" d="M559.651,477.417c6.24-12.149,14.483-22.362,23.887-31.67
	c0.216,0.176,0.433,0.353,0.649,0.529c-2.493,3.045-4.751,6.328-7.532,9.082c-4.69,4.644-8.131,10.098-11.372,15.745
	c-1.045,1.82-2.153,3.622-3.423,5.286C561.423,476.96,560.404,477.086,559.651,477.417z"/>
<path fill-rule="evenodd" clip-rule="evenodd" d="M316.585,541.727c0-151.986-0.017-303.974,0.08-455.96
	c0.003-4.86,0.259-10.09,2.024-14.496c2.709-6.76,9.36-9.705,15.875-11.871c16.122-5.359,32.486,0.445,40.481,15.5
	c13.162,24.784,25.546,49.984,38.105,75.085c42.292,84.521,84.511,169.08,126.81,253.599c0.759,1.517,2.171,2.708,3.278,4.052
	c1.237-1.39,2.854-2.59,3.659-4.196c54.526-108.91,108.962-217.865,163.476-326.781c10.187-20.353,33.96-25.336,51.964-11.327
	c5.577,4.339,7.052,10.262,7.686,16.622c0.378,3.79,0.174,7.642,0.174,11.467c0.006,302.809-0.006,605.619,0.073,908.428
	c0.003,7.881-3.01,13.675-9.256,18.194c-12.817,9.275-28.991,9.343-41.631-0.295c-2.409-1.837-4.498-4.513-5.863-7.238
	c-55.514-110.831-110.928-221.713-166.354-332.588c-0.297-0.595-0.476-1.284-0.892-1.773c-0.908-1.069-1.935-2.037-2.912-3.047
	c-0.962,1.037-2.225,1.924-2.842,3.138c-5.875,11.545-11.645,23.144-17.437,34.73c-49.312,98.657-98.696,197.277-147.867,296.004
	c-9.045,18.16-35.135,25.318-53.712,8.284c-2.814-2.58-3.574-7.592-4.806-11.625c-0.604-1.979-0.112-4.291-0.112-6.453
	C316.585,846.696,316.585,694.212,316.585,541.727z M543.417,503.746C480.313,377.509,417.893,252.64,355.473,127.77
	c-0.271,0.1-0.541,0.201-0.812,0.3c0,275.644,0,551.287,0,826.931c0.256,0.063,0.513,0.127,0.769,0.19
	c62.465-124.955,124.929-249.909,187.989-376.055c63.173,126.377,125.605,251.274,188.038,376.173
	c0.264-0.084,0.525-0.167,0.789-0.251c0-275.696,0-551.391,0-827.088c-0.285-0.091-0.568-0.182-0.853-0.272
	C668.968,252.578,606.543,377.458,543.417,503.746z"/>
<path fill-rule="evenodd" clip-rule="evenodd" fill="#FFFFFF" d="M543.417,503.746c63.127-126.287,125.552-251.167,187.977-376.048
	c0.284,0.091,0.567,0.182,0.853,0.272c0,275.697,0,551.392,0,827.088c-0.264,0.084-0.525,0.167-0.789,0.251
	c-62.433-124.898-124.865-249.796-188.038-376.173c-63.06,126.146-125.524,251.1-187.989,376.055
	c-0.256-0.063-0.512-0.127-0.769-0.19c0-275.644,0-551.287,0-826.931c0.271-0.1,0.541-0.2,0.812-0.3
	C417.893,252.64,480.313,377.509,543.417,503.746z M392.417,786.296c1.213-2.027,1.828-2.914,2.305-3.868
	c39.337-78.676,78.638-157.369,118.067-235.999c1.841-3.672,1.719-6.504-0.092-10.117c-37.341-74.474-74.559-149.009-111.809-223.53
	c-2.548-5.096-5.162-10.159-7.746-15.237c-0.242,0.088-0.484,0.175-0.726,0.262C392.417,460.2,392.417,622.591,392.417,786.296z
	 M694.418,296.472c-1.215,2.1-1.808,3.009-2.29,3.973C652.861,379,613.629,457.573,574.259,536.077
	c-1.899,3.789-2.044,6.68-0.103,10.55c39.382,78.502,78.609,157.082,117.887,235.637c0.515,1.028,1.282,1.93,2.375,3.544
	C694.418,622.499,694.418,460.166,694.418,296.472z"/>
<path fill-rule="evenodd" clip-rule="evenodd" d="M392.417,786.296c0-163.705,0-326.097,0-488.489
	c0.242-0.087,0.484-0.174,0.726-0.262c2.583,5.078,5.198,10.141,7.746,15.237c37.25,74.521,74.468,149.056,111.809,223.53
	c1.811,3.613,1.933,6.445,0.092,10.117c-39.429,78.63-78.73,157.323-118.067,235.999
	C394.245,783.382,393.631,784.269,392.417,786.296z M429.906,614.534c0.375,0.185,0.75,0.368,1.126,0.553
	c0.747-1.185,1.599-2.316,2.226-3.561c10.979-21.815,21.887-43.667,32.937-65.446c1.659-3.271,1.632-6.087-0.01-9.337
	c-11.077-21.923-22.023-43.912-33.058-65.855c-0.583-1.161-1.591-2.108-3.221-4.212C429.906,517,429.906,565.766,429.906,614.534z"
	/>
<path fill-rule="evenodd" clip-rule="evenodd" d="M694.418,296.472c0,163.693,0,326.026,0,489.335
	c-1.093-1.614-1.86-2.516-2.375-3.544c-39.277-78.555-78.505-157.135-117.887-235.637c-1.941-3.87-1.797-6.761,0.103-10.55
	c39.37-78.503,78.602-157.077,117.869-235.631C692.611,299.481,693.204,298.572,694.418,296.472z M655.754,616.118
	c0.313-0.126,0.626-0.253,0.938-0.379c0-49.622,0-99.245,0-149.216c-0.764,0.521-1.146,0.637-1.27,0.885
	c-11.905,23.874-23.833,47.736-35.569,71.692c-0.698,1.428-0.374,3.866,0.365,5.406c5.271,10.983,10.774,21.855,16.202,32.763
	C642.866,590.218,649.31,603.167,655.754,616.118z"/>
</svg>
